<svg id="Layer_1" data-name="Layer 1" xmlns="http://www.w3.org/2000/svg" viewBox="0 0 487 487"><defs><style>.cls-1{fill:none;}.cls-2{fill:#2c3e50;}</style></defs><rect class="cls-1" width="487" height="487"/><path class="cls-2" d="M341.24,142.25h.5a191,191,0,0,1,190,188.24H469c-1.47-69-58.08-125.09-127.47-125.5h-1c-69.65.14-126.49,56.19-128,125.5h-62a190.82,190.82,0,0,1,190-188.24h.73m-.11-3h-.63c-106.68.53-193,87.18-193,194v.25h68v-.25A125.25,125.25,0,0,1,340.5,208h1A125.26,125.26,0,0,1,466,333.25v.25h68.75v-.25c0-106.81-86.32-193.46-193-194Z" transform="translate(-97.25 -89.75)"/><path class="cls-2" d="M341.13,139.25h0Z" transform="translate(-97.25 -89.75)"/><path class="cls-2" d="M341.75,139.25h0Z" transform="translate(-97.25 -89.75)"/><path class="cls-2" d="M340.75,525.75c-105.56,0-191.55-85.41-192.49-190.75H214c.94,69.07,57.49,125,126.74,125s125.8-55.93,126.74-125h65.75A192.49,192.49,0,0,1,340.75,525.75Z" transform="translate(-97.25 -89.75)"/><path class="cls-2" d="M531.72,336.5a191,191,0,0,1-381.94,0h62.76c1.74,69.2,58.64,125,128.21,125S467.22,405.7,469,336.5h62.76M340.5,139.25c-107,.14-193.75,86.94-193.75,194s86.86,194,194,194,193.86-86.72,194-193.75H466a125.25,125.25,0,0,1-250.5,0h-68v-.25c0-106.81,86.32-193.46,193-194Z" transform="translate(-97.25 -89.75)"/><path class="cls-2" d="M263.54,308.27H248.07V350.2h-6.35V308.27H226.45v-5h37.09Z" transform="translate(-97.25 -89.75)"/><path class="cls-2" d="M287.13,350.2c-.22-1.06-.38-2-.5-2.79a19.92,19.92,0,0,1-.21-2.43,14.79,14.79,0,0,1-4.63,4.2,11.77,11.77,0,0,1-6.13,1.69c-3.64,0-6.4-.93-8.3-2.79a10.22,10.22,0,0,1-2.85-7.68,9,9,0,0,1,4-7.82q4.05-2.81,11-2.81h6.9v-3.45a6.38,6.38,0,0,0-1.87-4.85,7.32,7.32,0,0,0-5.29-1.79,7.62,7.62,0,0,0-5,1.55,4.62,4.62,0,0,0-1.9,3.7l-6,.07-.06-.2c-.15-2.53,1-4.85,3.56-7a14.77,14.77,0,0,1,9.78-3.16,14.41,14.41,0,0,1,9.54,3q3.6,3,3.61,8.68v16.79a32.39,32.39,0,0,0,.19,3.61,19.07,19.07,0,0,0,.71,3.42Zm-10.54-4.64a11.32,11.32,0,0,0,6.22-1.78,8.39,8.39,0,0,0,3.61-4.06v-5.67H279.3a9.27,9.27,0,0,0-6.14,1.93,5.79,5.79,0,0,0-2.31,4.55,4.79,4.79,0,0,0,1.45,3.67A6.1,6.1,0,0,0,276.59,345.56Z" transform="translate(-97.25 -89.75)"/><path class="cls-2" d="M331.69,334.08q0,7.55-3.6,12.17a12,12,0,0,1-10,4.62,13.84,13.84,0,0,1-5.66-1.08,10.84,10.84,0,0,1-4.14-3.24V363.6H302V315.33h4.87l1,4.51A11.55,11.55,0,0,1,312.1,316a12.73,12.73,0,0,1,5.93-1.32,11.59,11.59,0,0,1,10.07,5.14q3.6,5.15,3.59,13.59Zm-6.34-.67a18.38,18.38,0,0,0-2.34-9.75,7.57,7.57,0,0,0-6.88-3.82,8.43,8.43,0,0,0-4.67,1.24,9.34,9.34,0,0,0-3.13,3.4v16.85a9,9,0,0,0,3.13,3.37,8.73,8.73,0,0,0,4.73,1.21,7.83,7.83,0,0,0,6.84-3.3,14.59,14.59,0,0,0,2.32-8.53Z" transform="translate(-97.25 -89.75)"/><path class="cls-2" d="M380,341.4h.2l15-38.12h7.9V350.2h-6.35V315l-.2,0L382.35,350.2h-4.41l-14.63-36.35-.2,0V350.2h-6.34V303.28h8.34Z" transform="translate(-97.25 -89.75)"/><path class="cls-2" d="M427.66,350.87q-7.52,0-11.71-4.8t-4.21-12.63V332a18.08,18.08,0,0,1,4.34-12.42,13.56,13.56,0,0,1,10.58-4.92q7,0,10.49,4.35t3.5,11.57V334h-22.3l-.1.17a14.38,14.38,0,0,0,2.32,8.52q2.32,3.27,7.09,3.27a16.07,16.07,0,0,0,5.66-.92,12.5,12.5,0,0,0,4.17-2.53l2.48,4.13a15.23,15.23,0,0,1-4.93,3A19.58,19.58,0,0,1,427.66,350.87Zm-1-31.19a6.89,6.89,0,0,0-5.49,2.56,12.1,12.1,0,0,0-2.66,6.56l.06.16H434.3v-.52a10.12,10.12,0,0,0-1.87-6.28A6.77,6.77,0,0,0,426.66,319.68Z" transform="translate(-97.25 -89.75)"/><path class="cls-2" d="M455,334.79h-6.35V303.28H455Zm0,15.41h-6.38v-6.58h6.38Z" transform="translate(-97.25 -89.75)"/></svg>